<svg xmlns="http://www.w3.org/2000/svg" xmlns:xlink="http://www.w3.org/1999/xlink" width="500" zoomAndPan="magnify" viewBox="0 0 375 374.999991" height="500" preserveAspectRatio="xMidYMid meet" version="1.0"><defs><g/><clipPath id="115b8a0952"><path d="M 95.703125 62.074219 L 282.453125 62.074219 L 282.453125 164.824219 L 95.703125 164.824219 Z M 95.703125 62.074219 " clip-rule="nonzero"/></clipPath><clipPath id="e7903cedc7"><path d="M 88.542969 201.660156 L 284 201.660156 L 284 285.507812 L 88.542969 285.507812 Z M 88.542969 201.660156 " clip-rule="nonzero"/></clipPath></defs><rect x="-37.5" width="450" fill="#ffffff" y="-37.499999" height="449.999989" fill-opacity="1"/><rect x="-37.5" width="450" fill="#ffffff" y="-37.499999" height="449.999989" fill-opacity="1"/><g clip-path="url(#115b8a0952)"><path fill="#0999e0" d="M 235.640625 78.519531 C 212.835938 78.074219 195.066406 66.226562 188.992188 62.082031 C 182.921875 66.226562 165.152344 78.074219 142.347656 78.519531 C 117.320312 79.113281 101.625 73.039062 95.699219 69.042969 L 95.699219 135.382812 L 105.769531 135.382812 L 105.769531 84.144531 C 116.582031 87.257812 127.835938 88.738281 139.089844 88.589844 L 142.644531 88.589844 C 158.191406 88.144531 174.039062 83.109375 188.992188 73.929688 C 203.949219 83.109375 219.796875 88.144531 235.34375 88.441406 L 238.898438 88.441406 C 250.152344 88.589844 261.40625 87.109375 272.21875 84 L 272.21875 135.234375 L 282.289062 135.234375 L 282.289062 69.042969 C 276.363281 73.039062 260.667969 79.113281 235.640625 78.519531 Z M 247.488281 220.679688 C 231.789062 242.300781 211.058594 257.847656 188.992188 264.957031 C 166.78125 257.996094 146.199219 242.300781 130.5 220.828125 C 126.207031 214.90625 122.355469 208.6875 119.097656 202.167969 L 107.84375 202.167969 C 123.539062 235.785156 153.304688 265.253906 188.992188 275.324219 C 215.648438 267.769531 238.898438 249.410156 255.632812 226.605469 C 261.257812 218.902344 266.144531 210.609375 270.144531 202.023438 L 259.039062 202.023438 C 255.632812 208.539062 251.78125 214.757812 247.488281 220.679688 Z M 247.488281 220.679688 " fill-opacity="1" fill-rule="nonzero"/></g><g clip-path="url(#e7903cedc7)"><path fill="#0999e0" d="M 235.0625 79.230469 C 211.1875 78.765625 192.578125 66.363281 186.222656 62.019531 C 179.863281 66.363281 161.257812 78.765625 137.378906 79.230469 C 111.175781 79.851562 94.742188 73.496094 88.539062 69.308594 L 88.539062 138.773438 L 99.082031 138.773438 L 99.082031 85.125 C 110.402344 88.378906 122.183594 89.929688 133.96875 89.777344 L 137.691406 89.777344 C 153.972656 89.308594 170.5625 84.039062 186.222656 74.425781 C 201.882812 84.039062 218.472656 89.308594 234.753906 89.621094 L 238.476562 89.621094 C 250.257812 89.777344 262.042969 88.226562 273.363281 84.96875 L 273.363281 138.617188 L 283.90625 138.617188 L 283.90625 69.308594 C 277.703125 73.496094 261.269531 79.851562 235.0625 79.230469 Z M 247.46875 228.082031 C 231.03125 250.722656 209.324219 267.003906 186.222656 274.445312 C 162.964844 267.15625 141.410156 250.722656 124.976562 228.238281 C 120.480469 222.035156 116.449219 215.523438 113.035156 208.703125 L 101.253906 208.703125 C 117.6875 243.898438 148.855469 274.753906 186.222656 285.296875 C 214.132812 277.390625 238.476562 258.164062 255.996094 234.285156 C 261.890625 226.222656 267.003906 217.539062 271.191406 208.546875 L 259.5625 208.546875 C 255.996094 215.371094 251.964844 221.882812 247.46875 228.082031 Z M 247.46875 228.082031 " fill-opacity="1" fill-rule="nonzero"/></g><g fill="#00459a" fill-opacity="1"><g transform="translate(9.257501, 202.734465)"><g><path d="M 30.4375 1.21875 C 43.578125 1.21875 53.90625 -7.59375 56.328125 -20.734375 L 44.71875 -20.734375 C 42.8125 -14.046875 37.421875 -9.796875 30.4375 -9.796875 C 21.40625 -9.796875 14.65625 -16.9375 14.65625 -26.5 C 14.65625 -36.0625 21.40625 -43.28125 30.4375 -43.28125 C 37.125 -43.28125 42.4375 -39.328125 44.640625 -33.109375 L 56.109375 -33.109375 C 53.671875 -45.703125 43.34375 -54.28125 30.4375 -54.28125 C 14.8125 -54.28125 2.96875 -42.28125 2.96875 -26.5 C 2.96875 -10.78125 14.8125 1.21875 30.4375 1.21875 Z M 30.4375 1.21875 "/></g></g></g><g fill="#00459a" fill-opacity="1"><g transform="translate(67.791832, 202.734465)"><g><path d="M 50.34375 -53.140625 L 38.03125 -53.140625 L 25.734375 -31.8125 L 13.515625 -53.140625 L 1.296875 -53.140625 L 19.8125 -21.484375 L 19.8125 0 L 31.578125 0 L 31.578125 -21.40625 Z M 50.34375 -53.140625 "/></g></g></g><g fill="#00459a" fill-opacity="1"><g transform="translate(119.341512, 202.734465)"><g><path d="M 17.53125 -10.625 L 17.53125 -53.140625 L 6.078125 -53.140625 L 6.078125 0 L 37.953125 0 L 37.953125 -10.625 Z M 17.53125 -10.625 "/></g></g></g><g fill="#00459a" fill-opacity="1"><g transform="translate(158.971747, 202.734465)"><g><path d="M 17.53125 -10.625 L 17.53125 -21.5625 L 35.984375 -21.5625 L 35.984375 -31.96875 L 17.53125 -31.96875 L 17.53125 -42.515625 L 37.953125 -42.515625 L 37.953125 -53.140625 L 6.078125 -53.140625 L 6.078125 0 L 38.796875 0 L 38.796875 -10.625 Z M 17.53125 -10.625 "/></g></g></g><g fill="#00459a" fill-opacity="1"><g transform="translate(201.411029, 202.734465)"><g><path d="M 41.296875 0 L 53.828125 0 L 32.34375 -53.140625 L 21.484375 -53.140625 L 0.609375 0 L 12.828125 0 L 16.46875 -10.015625 L 37.578125 -10.015625 Z M 27.03125 -39.09375 L 34.015625 -20.046875 L 20.046875 -20.046875 Z M 27.03125 -39.09375 "/></g></g></g><g fill="#00459a" fill-opacity="1"><g transform="translate(255.921587, 202.734465)"><g><path d="M 35.296875 0 L 48.140625 0 L 36.359375 -20.046875 C 42.28125 -22.921875 46.078125 -28.546875 46.078125 -35.53125 C 46.078125 -45.78125 38.109375 -53.140625 27.484375 -53.140625 L 6.078125 -53.140625 L 6.078125 0 L 17.53125 0 L 17.53125 -18.0625 L 24.90625 -18.0625 Z M 17.53125 -42.515625 L 26.71875 -42.515625 C 31.578125 -42.515625 34.390625 -39.5625 34.390625 -35.609375 C 34.390625 -31.578125 31.578125 -28.703125 26.71875 -28.703125 L 17.53125 -28.703125 Z M 17.53125 -42.515625 "/></g></g></g><g fill="#00459a" fill-opacity="1"><g transform="translate(306.104711, 202.734465)"><g><path d="M 39.703125 -53.140625 L 39.703125 -20.734375 L 16.40625 -53.140625 L 6.078125 -53.140625 L 6.078125 0 L 17.3125 0 L 17.3125 -33.171875 L 41.375 0 L 51.015625 0 L 51.015625 -53.140625 Z M 39.703125 -53.140625 "/></g></g></g></svg>